G04*
G04 #@! TF.GenerationSoftware,Altium Limited,Altium Designer,24.9.1 (31)*
G04*
G04 Layer_Physical_Order=2*
G04 Layer_Color=16711680*
%FSLAX25Y25*%
%MOIN*%
G70*
G04*
G04 #@! TF.SameCoordinates,DFC5EAFA-02C9-4576-AE6E-E5021E00C3BD*
G04*
G04*
G04 #@! TF.FilePolarity,Positive*
G04*
G01*
G75*
%ADD10C,0.21260*%
%ADD11R,0.04724X0.04724*%
%ADD12R,0.04724X0.03543*%
%ADD13R,0.02756X0.05118*%
%ADD14R,0.04724X0.04724*%
%ADD15R,0.03543X0.04724*%
%ADD16O,0.06102X0.02362*%
%ADD17C,0.01575*%
G36*
X323343Y210461D02*
X324105D01*
X325615Y210262D01*
X327086Y209868D01*
X328493Y209285D01*
X329812Y208524D01*
X331020Y207597D01*
X332097Y206520D01*
X333024Y205311D01*
X333785Y203993D01*
X334368Y202586D01*
X334762Y201115D01*
X334961Y199605D01*
Y198843D01*
X334961Y13657D01*
X334961Y13657D01*
Y12896D01*
X334762Y11386D01*
X334368Y9915D01*
X333785Y8508D01*
X333024Y7189D01*
X332097Y5980D01*
X331020Y4904D01*
X329812Y3977D01*
X328493Y3215D01*
X327086Y2632D01*
X325615Y2238D01*
X324105Y2039D01*
X323343D01*
X13657Y2039D01*
X13657Y2039D01*
X12896D01*
X11386Y2238D01*
X9915Y2632D01*
X8508Y3215D01*
X7189Y3977D01*
X5980Y4904D01*
X4904Y5980D01*
X3977Y7189D01*
X3215Y8508D01*
X2632Y9915D01*
X2238Y11386D01*
X2039Y12896D01*
Y13657D01*
X2039Y198843D01*
X2039Y198843D01*
Y199605D01*
X2238Y201115D01*
X2632Y202586D01*
X3215Y203993D01*
X3977Y205311D01*
X4904Y206520D01*
X5980Y207597D01*
X7189Y208524D01*
X8508Y209285D01*
X9915Y209868D01*
X11386Y210262D01*
X12896Y210461D01*
X13657D01*
X323343Y210461D01*
X323343Y210461D01*
D02*
G37*
%LPC*%
G36*
X201862Y124790D02*
X195138D01*
Y119706D01*
X171634D01*
X171634Y119706D01*
X170937Y119568D01*
X170345Y119173D01*
X170345Y119173D01*
X167211Y116039D01*
X166816Y115447D01*
X166678Y114750D01*
X166678Y114750D01*
Y109612D01*
X161595D01*
Y108072D01*
X140996D01*
Y109612D01*
X134272D01*
Y102888D01*
X140996D01*
Y104428D01*
X161595D01*
Y102888D01*
X166678D01*
Y87492D01*
X166678Y87492D01*
X166816Y86795D01*
X167211Y86203D01*
X170452Y82963D01*
X170452Y82963D01*
X171043Y82568D01*
X171740Y82429D01*
X189493D01*
X191678Y80245D01*
Y65856D01*
X190777Y65714D01*
X189036Y65148D01*
X187405Y64317D01*
X185924Y63241D01*
X184629Y61946D01*
X183553Y60466D01*
X182722Y58834D01*
X182156Y57093D01*
X181870Y55285D01*
Y53455D01*
X182156Y51647D01*
X182722Y49906D01*
X183553Y48275D01*
X184629Y46794D01*
X185924Y45499D01*
X187405Y44423D01*
X189036Y43592D01*
X190777Y43027D01*
X192585Y42740D01*
X194415D01*
X196223Y43027D01*
X197964Y43592D01*
X199595Y44423D01*
X201076Y45499D01*
X202371Y46794D01*
X203447Y48275D01*
X204278Y49906D01*
X204844Y51647D01*
X205130Y53455D01*
Y55285D01*
X204844Y57093D01*
X204278Y58834D01*
X203447Y60466D01*
X202371Y61946D01*
X201076Y63241D01*
X199595Y64317D01*
X197964Y65148D01*
X196223Y65714D01*
X195322Y65856D01*
Y81000D01*
X195322Y81000D01*
X195184Y81697D01*
X195019Y81943D01*
X195287Y82443D01*
X201099D01*
X201282Y82480D01*
X201466Y82512D01*
X201477Y82518D01*
X201489Y82521D01*
X201645Y82625D01*
X201803Y82724D01*
X204679Y85465D01*
X204711Y85461D01*
X207211Y82961D01*
X207211Y82961D01*
X207803Y82566D01*
X208500Y82428D01*
X208500Y82428D01*
X232382D01*
Y80691D01*
X237138D01*
Y87809D01*
X232382D01*
Y86072D01*
X209255D01*
X207822Y87505D01*
Y98750D01*
Y100495D01*
X209255Y101928D01*
X209911D01*
X210138Y101522D01*
Y95978D01*
X216862D01*
Y96928D01*
X224802D01*
X225149Y96696D01*
X226000Y96526D01*
X229740D01*
X230591Y96696D01*
X230939Y96928D01*
X232500D01*
X232500Y96928D01*
X233197Y97066D01*
X233789Y97461D01*
X236049Y99721D01*
X236049Y99721D01*
X236444Y100312D01*
X236582Y101010D01*
X236582Y101010D01*
Y118990D01*
X236444Y119688D01*
X236049Y120279D01*
X236049Y120279D01*
X233021Y123307D01*
X232430Y123702D01*
X231732Y123840D01*
X231732Y123840D01*
X216862D01*
Y124790D01*
X210138D01*
Y123840D01*
X201862D01*
Y124790D01*
D02*
G37*
G36*
X251000Y115974D02*
X249630D01*
Y114250D01*
X253124D01*
X253055Y114601D01*
X252573Y115323D01*
X251851Y115805D01*
X251000Y115974D01*
D02*
G37*
G36*
X248630D02*
X247260D01*
X246409Y115805D01*
X245687Y115323D01*
X245205Y114601D01*
X245136Y114250D01*
X248630D01*
Y115974D01*
D02*
G37*
G36*
X253124Y113250D02*
X249130D01*
X245136D01*
X245205Y112899D01*
X245687Y112178D01*
X246409Y111696D01*
X247260Y111526D01*
X247308D01*
Y110974D01*
X247260D01*
X246409Y110805D01*
X245687Y110323D01*
X245205Y109601D01*
X245136Y109250D01*
X249130D01*
X253124D01*
X253055Y109601D01*
X252573Y110323D01*
X251851Y110805D01*
X251000Y110974D01*
X250952D01*
Y111526D01*
X251000D01*
X251851Y111696D01*
X252573Y112178D01*
X253055Y112899D01*
X253124Y113250D01*
D02*
G37*
G36*
Y108250D02*
X249130D01*
X245136D01*
X245205Y107899D01*
X245687Y107178D01*
X246409Y106696D01*
X247260Y106526D01*
X247308D01*
Y105974D01*
X247260D01*
X246409Y105805D01*
X245687Y105323D01*
X245205Y104601D01*
X245136Y104250D01*
X249130D01*
X253124D01*
X253055Y104601D01*
X252573Y105323D01*
X251851Y105805D01*
X251000Y105974D01*
X250952D01*
Y106526D01*
X251000D01*
X251851Y106696D01*
X252573Y107178D01*
X253055Y107899D01*
X253124Y108250D01*
D02*
G37*
G36*
X124362Y126246D02*
X117638D01*
Y119522D01*
X121785D01*
X122866Y118440D01*
X122675Y117978D01*
X117638D01*
Y113831D01*
X113419Y109612D01*
X109272D01*
Y104575D01*
X108810Y104384D01*
X107728Y105465D01*
Y109612D01*
X101004D01*
Y102888D01*
X105151D01*
X107261Y100778D01*
X107261Y100778D01*
X107852Y100383D01*
X108549Y100245D01*
X116062D01*
X117638Y98669D01*
Y94522D01*
X124362D01*
Y101246D01*
X120215D01*
X118106Y103356D01*
X117514Y103751D01*
X116817Y103890D01*
X116817Y103890D01*
X115996D01*
Y107035D01*
X120215Y111254D01*
X123361D01*
Y110433D01*
X123361Y110433D01*
X123500Y109736D01*
X123895Y109144D01*
X126004Y107035D01*
Y102888D01*
X132728D01*
Y109612D01*
X128581D01*
X127006Y111188D01*
Y118701D01*
X126867Y119398D01*
X126472Y119990D01*
X126472Y119990D01*
X124362Y122099D01*
Y126246D01*
D02*
G37*
G36*
X253124Y103250D02*
X249130D01*
X245136D01*
X245205Y102899D01*
X245687Y102178D01*
X246409Y101696D01*
X247260Y101526D01*
X247308D01*
Y100974D01*
X247260D01*
X246409Y100805D01*
X245687Y100323D01*
X245205Y99601D01*
X245136Y99250D01*
X249130D01*
X253124D01*
X253055Y99601D01*
X252573Y100323D01*
X251851Y100805D01*
X251000Y100974D01*
X250952D01*
Y101526D01*
X251000D01*
X251851Y101696D01*
X252573Y102178D01*
X253055Y102899D01*
X253124Y103250D01*
D02*
G37*
G36*
X216862Y93254D02*
X214000D01*
Y90982D01*
X216862D01*
Y93254D01*
D02*
G37*
G36*
X213000D02*
X210138D01*
Y90982D01*
X213000D01*
Y93254D01*
D02*
G37*
G36*
X124362Y92978D02*
X121500D01*
Y90116D01*
X124362D01*
Y92978D01*
D02*
G37*
G36*
X120500D02*
X117638D01*
Y90116D01*
X120500D01*
Y92978D01*
D02*
G37*
G36*
X216862Y89982D02*
X214000D01*
Y87711D01*
X216862D01*
Y89982D01*
D02*
G37*
G36*
X213000D02*
X210138D01*
Y87711D01*
X213000D01*
Y89982D01*
D02*
G37*
G36*
X124362Y89116D02*
X121500D01*
Y86254D01*
X124362D01*
Y89116D01*
D02*
G37*
G36*
X120500D02*
X117638D01*
Y86254D01*
X120500D01*
Y89116D01*
D02*
G37*
G36*
X253124Y98250D02*
X249130D01*
X245136D01*
X245205Y97899D01*
X245687Y97178D01*
X246409Y96696D01*
X247260Y96526D01*
X247308D01*
Y88135D01*
X245245Y86072D01*
X244618D01*
Y87809D01*
X242740D01*
Y84250D01*
Y80691D01*
X244618D01*
Y82428D01*
X246000D01*
X246000Y82428D01*
X246697Y82566D01*
X247289Y82961D01*
X250419Y86091D01*
X250419Y86091D01*
X250814Y86683D01*
X250952Y87380D01*
X250952Y87380D01*
Y96526D01*
X251000D01*
X251851Y96696D01*
X252573Y97178D01*
X253055Y97899D01*
X253124Y98250D01*
D02*
G37*
G36*
X241740Y87809D02*
X239862D01*
Y84750D01*
X241740D01*
Y87809D01*
D02*
G37*
G36*
Y83750D02*
X239862D01*
Y80691D01*
X241740D01*
Y83750D01*
D02*
G37*
G36*
X144415Y66000D02*
X144000D01*
Y54870D01*
X155130D01*
Y55285D01*
X154844Y57093D01*
X154278Y58834D01*
X153447Y60466D01*
X152371Y61946D01*
X151076Y63241D01*
X149595Y64317D01*
X147964Y65148D01*
X146223Y65714D01*
X144415Y66000D01*
D02*
G37*
G36*
X143000D02*
X142585D01*
X140777Y65714D01*
X139036Y65148D01*
X137405Y64317D01*
X135924Y63241D01*
X134629Y61946D01*
X133553Y60466D01*
X132722Y58834D01*
X132156Y57093D01*
X131870Y55285D01*
Y54870D01*
X143000D01*
Y66000D01*
D02*
G37*
G36*
X155130Y53870D02*
X144000D01*
Y42740D01*
X144415D01*
X146223Y43027D01*
X147964Y43592D01*
X149595Y44423D01*
X151076Y45499D01*
X152371Y46794D01*
X153447Y48275D01*
X154278Y49906D01*
X154844Y51647D01*
X155130Y53455D01*
Y53870D01*
D02*
G37*
G36*
X143000D02*
X131870D01*
Y53455D01*
X132156Y51647D01*
X132722Y49906D01*
X133553Y48275D01*
X134629Y46794D01*
X135924Y45499D01*
X137405Y44423D01*
X139036Y43592D01*
X140777Y43027D01*
X142585Y42740D01*
X143000D01*
Y53870D01*
D02*
G37*
%LPD*%
G36*
X232938Y118235D02*
Y113475D01*
X232930Y113463D01*
X232690Y113291D01*
X232437Y113217D01*
X232390Y113248D01*
X232352Y113256D01*
X232326Y113266D01*
X232296Y113282D01*
X232244Y113298D01*
X231901Y113431D01*
X231964Y113750D01*
X231795Y114601D01*
X231313Y115323D01*
X230591Y115805D01*
X229740Y115974D01*
X226000D01*
X225149Y115805D01*
X224802Y115573D01*
X216862D01*
Y116522D01*
X210138D01*
Y115573D01*
X208403D01*
Y116962D01*
X208264Y117659D01*
X207869Y118250D01*
X207869Y118250D01*
X206947Y119173D01*
X206356Y119568D01*
X205713Y119695D01*
X205763Y120195D01*
X210138D01*
Y119246D01*
X216862D01*
Y120195D01*
X230978D01*
X232938Y118235D01*
D02*
G37*
G36*
X204758Y114673D02*
X204758Y114673D01*
X204897Y113975D01*
X205292Y113384D01*
X206214Y112461D01*
X206214Y112461D01*
X206806Y112066D01*
X207503Y111928D01*
X210138D01*
Y110978D01*
X216862D01*
Y111928D01*
X224802D01*
X225149Y111696D01*
X226000Y111526D01*
X229740D01*
X230591Y111696D01*
X231313Y112178D01*
X231500Y112458D01*
X232000Y112306D01*
X232000Y110194D01*
X231500Y110042D01*
X231313Y110323D01*
X230591Y110805D01*
X229740Y110974D01*
X228370D01*
Y108750D01*
Y106526D01*
X229740D01*
X230591Y106696D01*
X231313Y107178D01*
X231500Y107458D01*
X232000Y107306D01*
X232000Y105194D01*
X231506Y105044D01*
X231498Y105045D01*
X231313Y105323D01*
X230591Y105805D01*
X229740Y105974D01*
X226000D01*
X225149Y105805D01*
X224802Y105572D01*
X208500D01*
X207803Y105434D01*
X207211Y105039D01*
X207211Y105039D01*
X204711Y102539D01*
X204316Y101947D01*
X204178Y101250D01*
X204178Y101250D01*
Y100573D01*
X201862D01*
Y101522D01*
X195138D01*
Y95978D01*
X201862D01*
Y96928D01*
X204178D01*
Y86750D01*
X204178Y86750D01*
X204237Y86452D01*
X201099Y83463D01*
X193615D01*
X191537Y85541D01*
X190945Y85936D01*
X190248Y86074D01*
X190248Y86074D01*
X172495D01*
X170323Y88247D01*
Y102888D01*
X172134D01*
Y106250D01*
Y109612D01*
X170323D01*
Y113995D01*
X172389Y116062D01*
X195138D01*
Y114250D01*
X198500D01*
X201862D01*
Y116062D01*
X204758D01*
Y114673D01*
D02*
G37*
%LPC*%
G36*
X201862Y113250D02*
X199000D01*
Y110978D01*
X201862D01*
Y113250D01*
D02*
G37*
G36*
X198000D02*
X195138D01*
Y110978D01*
X198000D01*
Y113250D01*
D02*
G37*
G36*
X227370Y110974D02*
X226000D01*
X225149Y110805D01*
X224428Y110323D01*
X223946Y109601D01*
X223876Y109250D01*
X227370D01*
Y110974D01*
D02*
G37*
G36*
X175406Y109612D02*
X173134D01*
Y106750D01*
X175406D01*
Y109612D01*
D02*
G37*
G36*
X227370Y108250D02*
X223876D01*
X223946Y107899D01*
X224428Y107178D01*
X225149Y106696D01*
X226000Y106526D01*
X227370D01*
Y108250D01*
D02*
G37*
G36*
X175406Y105750D02*
X173134D01*
Y102888D01*
X175406D01*
Y105750D01*
D02*
G37*
G36*
X201862Y93254D02*
X199000D01*
Y90982D01*
X201862D01*
Y93254D01*
D02*
G37*
G36*
X198000D02*
X195138D01*
Y90982D01*
X198000D01*
Y93254D01*
D02*
G37*
G36*
X201862Y89982D02*
X199000D01*
Y87711D01*
X201862D01*
Y89982D01*
D02*
G37*
G36*
X198000D02*
X195138D01*
Y87711D01*
X198000D01*
Y89982D01*
D02*
G37*
%LPD*%
D10*
X193500Y54370D02*
D03*
X143500D02*
D03*
D11*
X112634Y106250D02*
D03*
X104366D02*
D03*
X137634D02*
D03*
X129366D02*
D03*
D12*
X198500Y113750D02*
D03*
Y122018D02*
D03*
X213500Y122018D02*
D03*
Y113750D02*
D03*
X198500Y90482D02*
D03*
Y98750D02*
D03*
X213500Y90482D02*
D03*
Y98750D02*
D03*
D13*
X234760Y84250D02*
D03*
X242240D02*
D03*
D14*
X121000Y122884D02*
D03*
Y114616D02*
D03*
Y97884D02*
D03*
Y89616D02*
D03*
D15*
X172634Y106250D02*
D03*
X164366D02*
D03*
D16*
X249130Y113750D02*
D03*
Y108750D02*
D03*
Y103750D02*
D03*
Y98750D02*
D03*
X227870Y113750D02*
D03*
Y108750D02*
D03*
Y103750D02*
D03*
Y98750D02*
D03*
D17*
X193500Y54370D02*
Y81000D01*
X171740Y84252D02*
X190248D01*
X193500Y81000D01*
X168500Y87492D02*
Y114750D01*
Y87492D02*
X171740Y84252D01*
X168500Y114750D02*
X171634Y117884D01*
X198634Y122018D02*
X213500D01*
X231732D01*
X242240Y84250D02*
X246000D01*
X232500Y98750D02*
X234760Y101010D01*
X249130Y87380D02*
Y98750D01*
X137634Y106250D02*
X164366D01*
X206000Y86750D02*
Y98750D01*
X208500Y84250D02*
X234760D01*
X231732Y122018D02*
X234760Y118990D01*
X246000Y84250D02*
X249130Y87380D01*
X206000Y86750D02*
X208500Y84250D01*
X213500Y98750D02*
X232500D01*
X249130Y108750D02*
Y113750D01*
X213500D02*
X227870D01*
X121000Y122884D02*
X125183Y118701D01*
X116817Y102067D02*
X121000Y97884D01*
X249130Y103750D02*
Y108750D01*
X206000Y101250D02*
X208500Y103750D01*
X125183Y110433D02*
X129366Y106250D01*
X198500Y98750D02*
X206000D01*
X108549Y102067D02*
X116817D01*
X249130Y98750D02*
Y103750D01*
X234760Y101010D02*
Y118990D01*
X112634Y106250D02*
X121000Y114616D01*
X206000Y98750D02*
Y101250D01*
X104366Y106250D02*
X108549Y102067D01*
X125183Y110433D02*
Y118701D01*
X208500Y103750D02*
X227870D01*
X171634Y117884D02*
X205658D01*
X206581Y116962D01*
Y114673D02*
Y116962D01*
Y114673D02*
X207503Y113750D01*
X213500D01*
M02*
