G04*
G04 #@! TF.GenerationSoftware,Altium Limited,Altium Designer,24.9.1 (31)*
G04*
G04 Layer_Color=8388736*
%FSLAX25Y25*%
%MOIN*%
G70*
G04*
G04 #@! TF.SameCoordinates,DFC5EAFA-02C9-4576-AE6E-E5021E00C3BD*
G04*
G04*
G04 #@! TF.FilePolarity,Negative*
G04*
G01*
G75*
G36*
X324283Y199924D02*
X324424Y199783D01*
X324500Y199600D01*
Y199500D01*
Y198000D01*
Y197900D01*
X324424Y197717D01*
X324283Y197576D01*
X324099Y197500D01*
X322000D01*
Y199500D01*
Y199600D01*
X322076Y199783D01*
X322217Y199924D01*
X322401Y200000D01*
X324099D01*
X324283Y199924D01*
D02*
G37*
G36*
X14783Y199924D02*
X14924Y199783D01*
X15000Y199600D01*
Y199500D01*
Y197500D01*
X17099D01*
X17283Y197424D01*
X17424Y197283D01*
X17500Y197099D01*
Y197000D01*
Y195500D01*
Y195401D01*
X17424Y195217D01*
X17283Y195076D01*
X17099Y195000D01*
X15401D01*
X15217Y195076D01*
X15076Y195217D01*
X15000Y195401D01*
Y195500D01*
Y197500D01*
X12900D01*
X12717Y197576D01*
X12576Y197717D01*
X12500Y197901D01*
Y198000D01*
Y199500D01*
Y199600D01*
X12576Y199783D01*
X12717Y199924D01*
X12900Y200000D01*
X14599D01*
X14783Y199924D01*
D02*
G37*
G36*
X322000Y195500D02*
Y195401D01*
X321924Y195217D01*
X321783Y195076D01*
X321600Y195000D01*
X319901D01*
X319717Y195076D01*
X319576Y195217D01*
X319500Y195401D01*
Y195500D01*
Y197000D01*
Y197099D01*
X319576Y197283D01*
X319717Y197424D01*
X319901Y197500D01*
X322000D01*
Y195500D01*
D02*
G37*
G36*
X282413Y199924D02*
X282554Y199783D01*
X282630Y199600D01*
Y199500D01*
Y197500D01*
X284729D01*
X284913Y197424D01*
X285054Y197283D01*
X285130Y197099D01*
Y197000D01*
Y195500D01*
Y195401D01*
X285054Y195217D01*
X284913Y195076D01*
X284729Y195000D01*
X283031D01*
X282847Y195076D01*
X282706Y195217D01*
X282630Y195401D01*
Y195500D01*
Y197500D01*
X280531D01*
X280347Y197576D01*
X280206Y197717D01*
X280130Y197900D01*
Y198000D01*
Y199500D01*
Y199600D01*
X280206Y199783D01*
X280347Y199924D01*
X280531Y200000D01*
X282229D01*
X282413Y199924D01*
D02*
G37*
G36*
X168283D02*
X168424Y199783D01*
X168500Y199600D01*
Y199500D01*
Y197500D01*
X170599D01*
X170783Y197424D01*
X170924Y197283D01*
X171000Y197099D01*
Y197000D01*
Y195500D01*
Y195401D01*
X170924Y195217D01*
X170783Y195076D01*
X170599Y195000D01*
X168901D01*
X168717Y195076D01*
X168576Y195217D01*
X168500Y195401D01*
Y195500D01*
Y197500D01*
X166401D01*
X166217Y197576D01*
X166076Y197717D01*
X166000Y197900D01*
Y198000D01*
Y199500D01*
Y199600D01*
X166076Y199783D01*
X166217Y199924D01*
X166401Y200000D01*
X168099D01*
X168283Y199924D01*
D02*
G37*
G36*
X284913Y160554D02*
X285054Y160413D01*
X285130Y160229D01*
Y160130D01*
Y158630D01*
Y158530D01*
X285054Y158347D01*
X284913Y158206D01*
X284729Y158130D01*
X282630D01*
Y160130D01*
Y160229D01*
X282706Y160413D01*
X282847Y160554D01*
X283031Y160630D01*
X284729D01*
X284913Y160554D01*
D02*
G37*
G36*
X321783D02*
X321924Y160413D01*
X322000Y160229D01*
Y160130D01*
Y158130D01*
X324099D01*
X324283Y158054D01*
X324424Y157913D01*
X324500Y157729D01*
Y157630D01*
Y156130D01*
Y156030D01*
X324424Y155847D01*
X324283Y155706D01*
X324099Y155630D01*
X322401D01*
X322217Y155706D01*
X322076Y155847D01*
X322000Y156030D01*
Y156130D01*
Y158130D01*
X319901D01*
X319717Y158206D01*
X319576Y158347D01*
X319500Y158530D01*
Y158630D01*
Y160130D01*
Y160229D01*
X319576Y160413D01*
X319717Y160554D01*
X319901Y160630D01*
X321600D01*
X321783Y160554D01*
D02*
G37*
G36*
X282630Y156130D02*
Y156030D01*
X282554Y155847D01*
X282413Y155706D01*
X282229Y155630D01*
X280531D01*
X280347Y155706D01*
X280206Y155847D01*
X280130Y156030D01*
Y156130D01*
Y157630D01*
Y157729D01*
X280206Y157913D01*
X280347Y158054D01*
X280531Y158130D01*
X282630D01*
Y156130D01*
D02*
G37*
G36*
X324283Y108674D02*
X324424Y108533D01*
X324500Y108350D01*
Y108250D01*
Y106750D01*
Y106650D01*
X324424Y106467D01*
X324283Y106326D01*
X324099Y106250D01*
X322000D01*
Y108250D01*
Y108350D01*
X322076Y108533D01*
X322217Y108674D01*
X322401Y108750D01*
X324099D01*
X324283Y108674D01*
D02*
G37*
G36*
X17283D02*
X17424Y108533D01*
X17500Y108350D01*
Y108250D01*
Y106750D01*
Y106650D01*
X17424Y106467D01*
X17283Y106326D01*
X17099Y106250D01*
X15000D01*
Y108250D01*
Y108350D01*
X15076Y108533D01*
X15217Y108674D01*
X15401Y108750D01*
X17099D01*
X17283Y108674D01*
D02*
G37*
G36*
X184984Y105474D02*
X184845Y105335D01*
X179573D01*
X177816Y105427D01*
X177769Y108711D01*
X184938Y108757D01*
X184984Y105474D01*
D02*
G37*
G36*
X322000Y104250D02*
Y104150D01*
X321924Y103967D01*
X321783Y103826D01*
X321600Y103750D01*
X319901D01*
X319717Y103826D01*
X319576Y103967D01*
X319500Y104150D01*
Y104250D01*
Y105750D01*
Y105850D01*
X319576Y106033D01*
X319717Y106174D01*
X319901Y106250D01*
X322000D01*
Y104250D01*
D02*
G37*
G36*
X15000D02*
Y104150D01*
X14924Y103967D01*
X14783Y103826D01*
X14599Y103750D01*
X12900D01*
X12717Y103826D01*
X12576Y103967D01*
X12500Y104150D01*
Y104250D01*
Y105750D01*
Y105850D01*
X12576Y106033D01*
X12717Y106174D01*
X12900Y106250D01*
X15000D01*
Y104250D01*
D02*
G37*
G36*
X208060Y117174D02*
X208338Y117081D01*
X208985Y116804D01*
X210188Y116156D01*
X210789Y115555D01*
X210881Y115370D01*
X211066Y115185D01*
X211621Y113983D01*
X211806Y112688D01*
X211668Y111624D01*
X211390Y110884D01*
X210928Y110144D01*
X210188Y109405D01*
X209864Y109266D01*
X209910Y109127D01*
X210743Y108665D01*
X211251Y108248D01*
X211621Y107878D01*
X211714Y107694D01*
X212084Y107139D01*
X212315Y106537D01*
X212408Y105982D01*
X212454Y104086D01*
X212361Y103809D01*
X212223Y103208D01*
X212130Y102838D01*
X211575Y101913D01*
X211344Y101589D01*
X211159Y101404D01*
X211066Y101219D01*
X210835Y100988D01*
X210650Y100895D01*
X210465Y100710D01*
X210280Y100618D01*
X208708Y99878D01*
X208107Y99739D01*
X207552Y99647D01*
X206257Y99554D01*
X205609Y99462D01*
X205563Y99323D01*
X203343Y99415D01*
X202881Y99600D01*
X202280Y99739D01*
X201910Y99832D01*
X201447Y100017D01*
X200707Y100294D01*
X200615Y100572D01*
X200892Y101681D01*
X201031Y102283D01*
X201124Y102745D01*
X201308Y103485D01*
X201910Y103254D01*
X202835Y102884D01*
X203297Y102791D01*
X203852Y102699D01*
X206488Y102653D01*
X206766Y102745D01*
X207644Y103069D01*
X207783Y103208D01*
X207968Y103300D01*
X208199Y103531D01*
X208292Y103716D01*
X208569Y104364D01*
X208662Y105381D01*
X208569Y105659D01*
X208107Y106491D01*
X207413Y106907D01*
X206766Y107092D01*
X206118Y107185D01*
X203575Y107324D01*
X203667Y110283D01*
X206164Y110376D01*
X206719Y110468D01*
X206858Y110607D01*
X207320Y110884D01*
X207737Y111301D01*
X207922Y111763D01*
X208014Y112410D01*
X207922Y113058D01*
X207505Y113567D01*
X206950Y113937D01*
X206581Y114029D01*
X205933Y114122D01*
X204546Y114029D01*
X204083Y113844D01*
X203482Y113613D01*
X203020Y113428D01*
X202326Y113012D01*
X202187Y113151D01*
X201262Y115093D01*
X200985Y115740D01*
X201216Y115972D01*
X203158Y116896D01*
X203806Y117081D01*
X204083Y117174D01*
X204176D01*
X205101Y117266D01*
X208060Y117174D01*
D02*
G37*
G36*
X159502Y116896D02*
X159595Y106722D01*
X161352Y106630D01*
X161398Y103716D01*
X161260Y103578D01*
X159548Y103531D01*
X159456Y99832D01*
X155895Y99785D01*
X155803Y103578D01*
X148449Y103624D01*
X148542Y106676D01*
X149004Y107416D01*
X149837Y108988D01*
X150299Y109728D01*
X150392Y109913D01*
X150762Y110468D01*
X150854Y110653D01*
X151317Y111301D01*
X151594Y111763D01*
X152935Y113567D01*
X153166Y113890D01*
X153583Y114399D01*
X153814Y114723D01*
X154091Y115000D01*
X154184Y115185D01*
X154554Y115555D01*
X154646Y115740D01*
X154878Y115972D01*
X154924Y116018D01*
X155479Y116573D01*
X155571Y116758D01*
X155803Y116989D01*
X159502Y116896D01*
D02*
G37*
G36*
X195389Y117174D02*
X196037Y116896D01*
X197054Y116341D01*
X197563Y115925D01*
X197840Y115648D01*
X197933Y115463D01*
X198118Y115278D01*
X198580Y114260D01*
X198857Y113151D01*
X198765Y111763D01*
X198580Y111301D01*
X198025Y110283D01*
X197840Y110098D01*
X197748Y109913D01*
X197239Y109405D01*
X197054Y109312D01*
X196869Y109127D01*
X196730Y109081D01*
X196776Y108942D01*
X196961Y108850D01*
X197146Y108665D01*
X197331Y108572D01*
X197609Y108295D01*
X197794Y108202D01*
X198210Y107786D01*
X198303Y107601D01*
X198487Y107416D01*
X198580Y107231D01*
X198765Y107046D01*
X199042Y106399D01*
X199227Y105751D01*
X199320Y105104D01*
X199227Y103439D01*
X199135Y103161D01*
X199042Y102791D01*
X198811Y102190D01*
X198349Y101450D01*
X197609Y100710D01*
X197424Y100618D01*
X197239Y100433D01*
X196037Y99878D01*
X195389Y99693D01*
X195019Y99600D01*
X194094Y99508D01*
X192984Y99415D01*
X192707Y99508D01*
X191319Y99600D01*
X191042Y99693D01*
X190533Y99832D01*
X189793Y100109D01*
X189007Y100618D01*
X188498Y101034D01*
X188036Y101497D01*
X187943Y101681D01*
X187574Y102329D01*
X187389Y102976D01*
X187204Y103716D01*
X187157Y104688D01*
X187250Y105427D01*
X187527Y106167D01*
X187943Y106954D01*
X188313Y107324D01*
X188360Y107462D01*
X188406Y107509D01*
X189192Y108295D01*
X189377Y108387D01*
X189608Y108618D01*
X189377Y108850D01*
X189192Y108942D01*
X188498Y109636D01*
X188406Y109821D01*
X188128Y110098D01*
X188036Y110283D01*
X187666Y111116D01*
X187481Y112410D01*
X187620Y113659D01*
X187897Y114399D01*
X188452Y115324D01*
X188961Y115833D01*
X189007Y115972D01*
X189192Y116064D01*
X189377Y116249D01*
X189562Y116341D01*
X189747Y116526D01*
X190949Y117081D01*
X191689Y117266D01*
X195389Y117174D01*
D02*
G37*
G36*
X170231Y112919D02*
X170971Y112827D01*
X171896Y112457D01*
X173284Y111717D01*
X173468Y111532D01*
X173653Y111439D01*
X174162Y110931D01*
X174208Y110884D01*
X174347Y110746D01*
X174440Y110561D01*
X174810Y110006D01*
X175272Y108988D01*
X175550Y108063D01*
X175642Y107416D01*
X175827Y105474D01*
X175734Y105196D01*
X175642Y104086D01*
X175550Y103809D01*
X175133Y102653D01*
X174347Y101312D01*
X173931Y100803D01*
X173746Y100618D01*
X173561Y100525D01*
X173376Y100340D01*
X173191Y100248D01*
X172544Y99878D01*
X172081Y99693D01*
X171434Y99508D01*
X170786Y99415D01*
X169491Y99323D01*
X169214Y99415D01*
X168751Y99508D01*
X168474Y99600D01*
X167410Y99924D01*
X167364Y95161D01*
X163618Y95207D01*
X163664Y112364D01*
X166208Y112873D01*
X167133Y112966D01*
X169954Y113012D01*
X170231Y112919D01*
D02*
G37*
G36*
X141096D02*
X141790Y112780D01*
X142160Y112688D01*
X143501Y112087D01*
X144380Y111486D01*
X144518Y111347D01*
X144703Y111254D01*
X144842Y111116D01*
X144935Y110931D01*
X145305Y110561D01*
Y110468D01*
X145351Y110422D01*
X145490Y110283D01*
X146137Y108896D01*
X146322Y108248D01*
X146415Y107878D01*
X146507Y106954D01*
X146600Y104919D01*
X146507Y104641D01*
X146415Y103901D01*
X146322Y103624D01*
X146091Y103023D01*
X145906Y102560D01*
X145120Y101219D01*
X144334Y100433D01*
X144149Y100340D01*
X143594Y99970D01*
X142669Y99600D01*
X142068Y99462D01*
X141050Y99369D01*
X140356Y99323D01*
X140079Y99415D01*
X139524Y99508D01*
X139061Y99693D01*
X138553Y99832D01*
X138229Y99970D01*
X138137Y95161D01*
X134483Y95207D01*
X134529Y112364D01*
X135593Y112595D01*
X136518Y112780D01*
X137073Y112873D01*
X137998Y112966D01*
X140819Y113012D01*
X141096Y112919D01*
D02*
G37*
G36*
X118158Y115509D02*
X118297Y115093D01*
X118343Y113752D01*
X119315Y113521D01*
X120054Y113243D01*
X120609Y112966D01*
X121349Y112503D01*
X121673Y112272D01*
X121858Y112087D01*
X122043Y111994D01*
X122459Y111578D01*
X122552Y111393D01*
X122922Y111023D01*
X123014Y110838D01*
X123384Y110283D01*
X123662Y109636D01*
X123847Y109173D01*
X124124Y108063D01*
X124170Y107647D01*
X126113Y107555D01*
X126251Y107416D01*
X126205Y105982D01*
X125558Y105797D01*
X124124Y105751D01*
X124032Y105011D01*
X123847Y104549D01*
X123569Y103901D01*
X123523Y103763D01*
X123477Y103716D01*
X123384Y103531D01*
X122783Y102653D01*
X122644Y102514D01*
X122552Y102329D01*
X121765Y101543D01*
X121581Y101450D01*
X121303Y101173D01*
X121118Y101080D01*
X120563Y100710D01*
X119916Y100433D01*
X119453Y100248D01*
X118343Y99970D01*
X118251Y98121D01*
X118158Y97936D01*
X116679Y98028D01*
X116540Y98167D01*
X116493Y99970D01*
X116123Y100063D01*
X115430Y100202D01*
X114690Y100479D01*
X114227Y100664D01*
X113303Y101219D01*
X113164Y101358D01*
X112979Y101450D01*
X112701Y101728D01*
X112516Y101820D01*
X112100Y102236D01*
X112008Y102421D01*
X111638Y102791D01*
X111545Y102976D01*
X111083Y103716D01*
X110805Y104364D01*
X110528Y105289D01*
X110389Y105797D01*
X108817Y105890D01*
X108585Y106029D01*
X108678Y107509D01*
X109187Y107647D01*
X110435Y107694D01*
X110574Y108480D01*
X110667Y108850D01*
X110944Y109590D01*
X111638Y110838D01*
X111823Y111023D01*
X111915Y111208D01*
X113071Y112364D01*
X113256Y112457D01*
X113904Y112919D01*
X114736Y113289D01*
X115661Y113567D01*
X116031Y113659D01*
X116540Y113798D01*
X116632Y115463D01*
X116771Y115602D01*
X118158Y115509D01*
D02*
G37*
G36*
X56653Y56794D02*
X56794Y56653D01*
X56870Y56470D01*
Y56370D01*
Y54870D01*
Y54771D01*
X56794Y54587D01*
X56653Y54446D01*
X56470Y54370D01*
X54370D01*
Y56370D01*
Y56470D01*
X54446Y56653D01*
X54587Y56794D01*
X54771Y56870D01*
X56470D01*
X56653Y56794D01*
D02*
G37*
G36*
X54370Y52370D02*
Y52271D01*
X54294Y52087D01*
X54153Y51946D01*
X53970Y51870D01*
X52271D01*
X52087Y51946D01*
X51946Y52087D01*
X51870Y52271D01*
Y52370D01*
Y53870D01*
Y53970D01*
X51946Y54153D01*
X52087Y54294D01*
X52271Y54370D01*
X54370D01*
Y52370D01*
D02*
G37*
G36*
X14783Y56794D02*
X14924Y56653D01*
X15000Y56470D01*
Y56370D01*
Y54370D01*
X17099D01*
X17283Y54294D01*
X17424Y54153D01*
X17500Y53970D01*
Y53870D01*
Y52370D01*
Y52271D01*
X17424Y52087D01*
X17283Y51946D01*
X17099Y51870D01*
X15401D01*
X15217Y51946D01*
X15076Y52087D01*
X15000Y52271D01*
Y52370D01*
Y54370D01*
X12900D01*
X12717Y54446D01*
X12576Y54587D01*
X12500Y54771D01*
Y54870D01*
Y56370D01*
Y56470D01*
X12576Y56653D01*
X12717Y56794D01*
X12900Y56870D01*
X14599D01*
X14783Y56794D01*
D02*
G37*
G36*
X170783Y17424D02*
X170924Y17283D01*
X171000Y17099D01*
Y17000D01*
Y15500D01*
Y15401D01*
X170924Y15217D01*
X170783Y15076D01*
X170599Y15000D01*
X168500D01*
Y17000D01*
Y17099D01*
X168576Y17283D01*
X168717Y17424D01*
X168901Y17500D01*
X170599D01*
X170783Y17424D01*
D02*
G37*
G36*
X17283D02*
X17424Y17283D01*
X17500Y17099D01*
Y17000D01*
Y15500D01*
Y15401D01*
X17424Y15217D01*
X17283Y15076D01*
X17099Y15000D01*
X15000D01*
Y17000D01*
Y17099D01*
X15076Y17283D01*
X15217Y17424D01*
X15401Y17500D01*
X17099D01*
X17283Y17424D01*
D02*
G37*
G36*
X168500Y13000D02*
Y12900D01*
X168424Y12717D01*
X168283Y12576D01*
X168099Y12500D01*
X166401D01*
X166217Y12576D01*
X166076Y12717D01*
X166000Y12900D01*
Y13000D01*
Y14500D01*
Y14599D01*
X166076Y14783D01*
X166217Y14924D01*
X166401Y15000D01*
X168500D01*
Y13000D01*
D02*
G37*
G36*
X54153Y17424D02*
X54294Y17283D01*
X54370Y17099D01*
Y17000D01*
Y15000D01*
X56470D01*
X56653Y14924D01*
X56794Y14783D01*
X56870Y14599D01*
Y14500D01*
Y13000D01*
Y12900D01*
X56794Y12717D01*
X56653Y12576D01*
X56470Y12500D01*
X54771D01*
X54587Y12576D01*
X54446Y12717D01*
X54370Y12900D01*
Y13000D01*
Y15000D01*
X52271D01*
X52087Y15076D01*
X51946Y15217D01*
X51870Y15401D01*
Y15500D01*
Y17000D01*
Y17099D01*
X51946Y17283D01*
X52087Y17424D01*
X52271Y17500D01*
X53970D01*
X54153Y17424D01*
D02*
G37*
G36*
X15000Y13000D02*
Y12900D01*
X14924Y12717D01*
X14783Y12576D01*
X14599Y12500D01*
X12900D01*
X12717Y12576D01*
X12576Y12717D01*
X12500Y12900D01*
Y13000D01*
Y14500D01*
Y14599D01*
X12576Y14783D01*
X12717Y14924D01*
X12900Y15000D01*
X15000D01*
Y13000D01*
D02*
G37*
G36*
X321783Y17424D02*
X321924Y17283D01*
X322000Y17099D01*
Y17000D01*
Y15000D01*
X324099D01*
X324283Y14924D01*
X324424Y14783D01*
X324500Y14599D01*
Y14500D01*
Y13000D01*
Y12900D01*
X324424Y12717D01*
X324283Y12576D01*
X324099Y12500D01*
X322400D01*
X322217Y12576D01*
X322076Y12717D01*
X322000Y12900D01*
Y13000D01*
Y15000D01*
X319900D01*
X319717Y15076D01*
X319576Y15217D01*
X319500Y15401D01*
Y15500D01*
Y17000D01*
Y17099D01*
X319576Y17283D01*
X319717Y17424D01*
X319900Y17500D01*
X321599D01*
X321783Y17424D01*
D02*
G37*
%LPC*%
G36*
X155803Y112272D02*
X155571Y111948D01*
X154693Y110792D01*
X153536Y109173D01*
X153444Y108988D01*
X153351Y108896D01*
Y108803D01*
X153166Y108618D01*
X153074Y108433D01*
X152704Y107878D01*
X152149Y106861D01*
X152057Y106769D01*
X155803Y106722D01*
X155849Y112226D01*
X155803Y112272D01*
D02*
G37*
G36*
X193354Y114214D02*
X192429Y114122D01*
X191782Y113752D01*
X191366Y113336D01*
X191181Y112226D01*
X191319Y111624D01*
X191412Y111347D01*
X191458Y111301D01*
X191551Y111116D01*
X191967Y110607D01*
X192152Y110514D01*
X192337Y110329D01*
X193169Y109959D01*
X193724Y109774D01*
X194557Y110422D01*
X194788Y110653D01*
X194880Y110838D01*
X195250Y111671D01*
X195343Y112041D01*
X195204Y113012D01*
X195065Y113336D01*
X194649Y113844D01*
X194002Y114122D01*
X193354Y114214D01*
D02*
G37*
G36*
X192337Y107185D02*
X192152Y107092D01*
X191967Y106907D01*
X191782Y106815D01*
X191551Y106584D01*
X191458Y106399D01*
X191273Y106214D01*
X191181Y106029D01*
X190811Y105196D01*
X190718Y104271D01*
X190857Y103578D01*
X190996Y103346D01*
X191042Y103300D01*
X191597Y102745D01*
X192244Y102468D01*
X192892Y102375D01*
X194372Y102468D01*
X195019Y102930D01*
X195158Y103069D01*
X195250Y103254D01*
X195620Y104086D01*
X195528Y105104D01*
X194880Y105936D01*
X194742Y106075D01*
X194557Y106167D01*
X194372Y106352D01*
X194187Y106445D01*
X192984Y107000D01*
X192337Y107185D01*
D02*
G37*
G36*
X169399Y109867D02*
X167318Y109821D01*
X167410Y103254D01*
X167919Y103023D01*
X168520Y102884D01*
X169260Y102791D01*
X169399Y102745D01*
X169676Y102838D01*
X170324Y102930D01*
X170971Y103300D01*
X171295Y103624D01*
X171387Y103809D01*
X171757Y104641D01*
X171850Y105289D01*
X171942Y105659D01*
X171850Y107324D01*
X171757Y107601D01*
X171526Y108202D01*
X171064Y108942D01*
X170601Y109405D01*
X170231Y109590D01*
X170185Y109636D01*
X169399Y109867D01*
D02*
G37*
G36*
X140356D02*
X138183Y109821D01*
X138275Y103254D01*
X138876Y103023D01*
X139246Y102930D01*
X139385Y102884D01*
X139432Y102838D01*
X140310Y102791D01*
X141050Y102884D01*
X141513Y103069D01*
X141836Y103300D01*
X142253Y103716D01*
X142345Y103901D01*
X142622Y104549D01*
X142715Y104919D01*
X142807Y105566D01*
X142715Y107601D01*
X142068Y108803D01*
X141651Y109312D01*
X141466Y109405D01*
X141004Y109682D01*
X140356Y109867D01*
D02*
G37*
G36*
X118343Y111902D02*
X118251Y108665D01*
X118020Y108341D01*
X117881Y108202D01*
X117280Y108156D01*
X116817Y108341D01*
X116632Y108526D01*
X116540Y108896D01*
X116493Y111902D01*
X115522Y111671D01*
X115014Y111439D01*
X114829Y111347D01*
X113950Y110746D01*
X113118Y109913D01*
X113025Y109728D01*
X112563Y108988D01*
X112470Y108618D01*
X112285Y108156D01*
X112193Y107601D01*
X115337Y107509D01*
X115707Y107324D01*
X115800Y107139D01*
X115892Y106861D01*
X115939Y106630D01*
X115846Y106260D01*
X115615Y105936D01*
X115014Y105705D01*
X112285Y105659D01*
X112378Y105289D01*
X112748Y104456D01*
X112840Y104271D01*
X113488Y103439D01*
X114181Y102745D01*
X114366Y102653D01*
X114551Y102468D01*
X115754Y101913D01*
X116355Y101774D01*
X116493Y101728D01*
X116586Y104688D01*
X116817Y105011D01*
X116956Y105150D01*
X117326Y105242D01*
X117881Y105150D01*
X118112Y105011D01*
X118205Y104826D01*
X118297Y104549D01*
X118343Y101728D01*
X118991Y101913D01*
X120378Y102653D01*
X120656Y102930D01*
X120841Y103023D01*
X121257Y103439D01*
X121349Y103624D01*
X121534Y103809D01*
X121627Y103994D01*
X121997Y104549D01*
X122182Y105011D01*
X122367Y105659D01*
X122320Y105797D01*
X119453Y105890D01*
X119037Y106214D01*
X118945Y106584D01*
X119037Y107231D01*
X119361Y107555D01*
X120008Y107647D01*
X121673D01*
X122459Y107694D01*
X122367Y107971D01*
X122274Y108341D01*
X122089Y108803D01*
X121534Y109821D01*
X121349Y110006D01*
X121257Y110191D01*
X120563Y110884D01*
X120378Y110977D01*
X119731Y111439D01*
X119130Y111671D01*
X118343Y111902D01*
D02*
G37*
%LPD*%
M02*
