G04*
G04 #@! TF.GenerationSoftware,Altium Limited,Altium Designer,24.9.1 (31)*
G04*
G04 Layer_Color=128*
%FSLAX25Y25*%
%MOIN*%
G70*
G04*
G04 #@! TF.SameCoordinates,A25FCC72-9D46-4550-BA20-9C7FB643A395*
G04*
G04*
G04 #@! TF.FilePolarity,Positive*
G04*
G01*
G75*
%ADD11R,0.04724X0.04724*%
%ADD12R,0.04724X0.03543*%
%ADD13R,0.02756X0.05118*%
%ADD14R,0.04724X0.04724*%
%ADD15R,0.03543X0.04724*%
%ADD16O,0.06102X0.02362*%
D11*
X112634Y106250D02*
D03*
X104366D02*
D03*
X137634D02*
D03*
X129366D02*
D03*
D12*
X198500Y113750D02*
D03*
Y122018D02*
D03*
X213500Y122018D02*
D03*
Y113750D02*
D03*
X198500Y90482D02*
D03*
Y98750D02*
D03*
X213500Y90482D02*
D03*
Y98750D02*
D03*
D13*
X234760Y84250D02*
D03*
X242240D02*
D03*
D14*
X121000Y122884D02*
D03*
Y114616D02*
D03*
Y97884D02*
D03*
Y89616D02*
D03*
D15*
X172634Y106250D02*
D03*
X164366D02*
D03*
D16*
X249130Y113750D02*
D03*
Y108750D02*
D03*
Y103750D02*
D03*
Y98750D02*
D03*
X227870Y113750D02*
D03*
Y108750D02*
D03*
Y103750D02*
D03*
Y98750D02*
D03*
M02*
