G04*
G04 #@! TF.GenerationSoftware,Altium Limited,Altium Designer,24.9.1 (31)*
G04*
G04 Layer_Color=16711935*
%FSLAX25Y25*%
%MOIN*%
G70*
G04*
G04 #@! TF.SameCoordinates,A25FCC72-9D46-4550-BA20-9C7FB643A395*
G04*
G04*
G04 #@! TF.FilePolarity,Positive*
G04*
G01*
G75*
%ADD28C,0.00394*%
D28*
X244799Y112549D02*
G03*
X244799Y112549I-1969J0D01*
G01*
X112831Y103593D02*
Y108908D01*
X104169Y103593D02*
Y108908D01*
X112831D01*
X104169Y103593D02*
X112831D01*
X201158Y113553D02*
Y122215D01*
X195843Y113553D02*
Y122215D01*
Y113553D02*
X201158D01*
X195843Y122215D02*
X201158D01*
X234169Y81494D02*
X242831D01*
X234169Y87006D02*
X242831D01*
X234169Y81494D02*
Y87006D01*
X242831Y81494D02*
Y87006D01*
X118343Y123081D02*
X123658D01*
X118343Y114419D02*
X123658D01*
X118343D02*
Y123081D01*
X123658Y114419D02*
Y123081D01*
X172831Y103593D02*
Y108908D01*
X164169Y103593D02*
Y108908D01*
X172831D01*
X164169Y103593D02*
X172831D01*
X246374Y96408D02*
Y116093D01*
X230626Y96408D02*
Y116093D01*
X246374D01*
X230626Y96408D02*
X246374D01*
X210843Y113553D02*
Y122215D01*
X216158Y113553D02*
Y122215D01*
X210843D02*
X216158D01*
X210843Y113553D02*
X216158D01*
X118343Y98081D02*
X123658D01*
X118343Y89419D02*
X123658D01*
X118343D02*
Y98081D01*
X123658Y89419D02*
Y98081D01*
X201158Y90285D02*
Y98947D01*
X195843Y90285D02*
Y98947D01*
Y90285D02*
X201158D01*
X195843Y98947D02*
X201158D01*
X137831Y103593D02*
Y108908D01*
X129169Y103593D02*
Y108908D01*
X137831D01*
X129169Y103593D02*
X137831D01*
X216158Y90285D02*
Y98947D01*
X210843Y90285D02*
Y98947D01*
Y90285D02*
X216158D01*
X210843Y98947D02*
X216158D01*
M02*
